<svg width="24" height="24" viewBox="0 0 24 24" fill="none" xmlns="http://www.w3.org/2000/svg">
    <rect x="2" y="2" width="20" height="20" stroke="#171717" stroke-width="2" />
    <path d="M5 9H16V19" stroke="#171717" />
    <rect x="13.5" y="13.5" width="5" height="5" fill="#E06C36" stroke="#A02E16" />
    <path d="M7.5 5.86159L12.9922 9L7.5 12.1384V5.86159Z" fill="#58B7DE" stroke="#1B5E97" />
    <line x1="2.35355" y1="17.6464" x2="6.35355" y2="21.6464" stroke="#171717" />
    <line x1="2.35355" y1="17.6464" x2="6.35355" y2="21.6464" stroke="#171717" />
    <line x1="2.35355" y1="17.6464" x2="6.35355" y2="21.6464" stroke="#171717" />
    <line x1="1.64645" y1="7.17414" x2="6.17414" y2="2.64645" stroke="#171717" />
    <line x1="1.64645" y1="7.17414" x2="6.17414" y2="2.64645" stroke="#171717" />
    <line x1="1.64645" y1="7.17414" x2="6.17414" y2="2.64645" stroke="#171717" />
    <line x1="17.6464" y1="21.6464" x2="21.6464" y2="17.6464" stroke="#171717" />
    <line x1="17.6464" y1="21.6464" x2="21.6464" y2="17.6464" stroke="#171717" />
    <line x1="17.6464" y1="21.6464" x2="21.6464" y2="17.6464" stroke="#171717" />
    <line y1="-0.5" x2="5.65685" y2="-0.5"
        transform="matrix(-0.707107 -0.707107 -0.707107 0.707107 22 7)" stroke="#171717" />
    <line y1="-0.5" x2="5.65685" y2="-0.5"
        transform="matrix(-0.707107 -0.707107 -0.707107 0.707107 22 7)" stroke="#171717" />
    <line y1="-0.5" x2="5.65685" y2="-0.5"
        transform="matrix(-0.707107 -0.707107 -0.707107 0.707107 22 7)" stroke="#171717" />
</svg>