<svg width="24" height="24" viewBox="0 0 24 24" fill="none" xmlns="http://www.w3.org/2000/svg">
    <path
        d="M10 5C9.37935 4.99968 8.77387 5.19186 8.26702 5.55006C7.76016 5.90826 7.37688 6.41484 7.17 7H4V9H7.17C7.3766 9.58553 7.75974 10.0926 8.2666 10.4512C8.77346 10.8099 9.37909 11.0025 10 11.0025C10.6209 11.0025 11.2265 10.8099 11.7334 10.4512C12.2403 10.0926 12.6234 9.58553 12.83 9H20V7H12.83C12.6231 6.41484 12.2398 5.90826 11.733 5.55006C11.2261 5.19186 10.6207 4.99968 10 5ZM14 13C13.3793 12.9997 12.7739 13.1919 12.267 13.5501C11.7602 13.9083 11.3769 14.4148 11.17 15H4V17H11.17C11.3766 17.5855 11.7597 18.0926 12.2666 18.4512C12.7735 18.8099 13.3791 19.0025 14 19.0025C14.6209 19.0025 15.2265 18.8099 15.7334 18.4512C16.2403 18.0926 16.6234 17.5855 16.83 17H20V15H16.83C16.6231 14.4148 16.2398 13.9083 15.733 13.5501C15.2261 13.1919 14.6207 12.9997 14 13Z"
        fill="#bfbddb" />
</svg>