<?xml version='1.0' encoding='utf-8'?>
<svg xmlns="http://www.w3.org/2000/svg" display="inline" height="61.000000px"
    preserveAspectRatio="xMinYMin meet" viewBox="109.00 88.00 282.00 61.00" width="282.000000px"
    x="0" y="0" zoomAndPan="disable">
    <g fill="none" stroke="black" stroke-width="1" fill-rule="evenodd" stroke-linecap="square"
        stroke-linejoin="bevel">
        <g data-tags="diagram">
            <g id="TestMdl:7">
                <g data-tags="blk">
                    <g id="TestMdl:9">
                        <g clip-path="none" fill="none" opacity="0.65098" stroke="#0a0a0a"
                            stroke-linecap="square" stroke-linejoin="bevel" stroke-opacity="1"
                            stroke-width="1" transform="matrix(1,0,0,1,359,102)" />
                        <g clip-path="none" fill="#f5f5f5CC" fill-opacity="1" opacity="1"
                            stroke="none" stroke-opacity="0" transform="matrix(1,0,0,1,360,103)">
                            <path
                                d="M7,0 L23,0 C26.866,0 30,3.13401 30,7 C30,10.866 26.866,14 23,14 L7,14 C3.13401,14 0,10.866 0,7 C0,3.13401 3.13401,0 7,0 z"
                                fill-rule="nonzero" vector-effect="none" />
                        </g>
                        <g data-tags="blk">
                            <defs>
                                <clipPath id="clip2">
                                    <path d="M-17,-9 L17,-9 L17,9 L-17,9 L-17,-9 z" />
                                </clipPath>
                            </defs>
                            <g clip-path="url(#clip2)" fill="none" opacity="1" stroke="#0a0a0a"
                                stroke-linecap="butt" stroke-linejoin="miter" stroke-miterlimit="2"
                                stroke-opacity="1" stroke-width="1"
                                transform="matrix(1,0,0,1,375,110)">
                                <text fill="#0a0a0a" fill-opacity="1" font-family="monospace"
                                    font-size="10" font-style="normal" font-weight="400"
                                    stroke="none" textLength="5.54688" x="-2.76563"
                                    xml:space="preserve" y="3.5">1</text>
                            </g>
                        </g>
                        <g data-tags="blk frame">
                            <g clip-path="none" fill="none" opacity="1" stroke="#0a0a0a"
                                stroke-linecap="butt" stroke-linejoin="miter" stroke-miterlimit="2"
                                stroke-opacity="1" stroke-width="1"
                                transform="matrix(1,0,0,1,360,103)">
                                <path
                                    d="M7,0 L23,0 C26.866,0 30,3.13401 30,7 C30,10.866 26.866,14 23,14 L7,14 C3.13401,14 0,10.866 0,7 C0,3.13401 3.13401,0 7,0 z"
                                    fill-rule="nonzero" vector-effect="none" />
                            </g>
                        </g>
                    </g>
                </g>
                <g data-tags="blk">
                    <g id="TestMdl:8">
                        <g clip-path="none" fill="none" opacity="0.65098" stroke="#0a0a0a"
                            stroke-linecap="square" stroke-linejoin="bevel" stroke-opacity="1"
                            stroke-width="1" transform="matrix(1,0,0,1,109,102)" />
                        <g clip-path="none" fill="#f5f5f5CC" fill-opacity="1" opacity="1"
                            stroke="none" stroke-opacity="0" transform="matrix(1,0,0,1,110,103)">
                            <path
                                d="M7,0 L23,0 C26.866,0 30,3.13401 30,7 C30,10.866 26.866,14 23,14 L7,14 C3.13401,14 0,10.866 0,7 C0,3.13401 3.13401,0 7,0 z"
                                fill-rule="nonzero" vector-effect="none" />
                        </g>
                        <g data-tags="blk">
                            <defs>
                                <clipPath id="clip4">
                                    <path d="M-17,-9 L17,-9 L17,9 L-17,9 L-17,-9 z" />
                                </clipPath>
                            </defs>
                            <g clip-path="url(#clip4)" fill="none" opacity="1" stroke="#0a0a0a"
                                stroke-linecap="butt" stroke-linejoin="miter" stroke-miterlimit="2"
                                stroke-opacity="1" stroke-width="1"
                                transform="matrix(1,0,0,1,125,110)">
                                <text fill="#0a0a0a" fill-opacity="1" font-family="monospace"
                                    font-size="10" font-style="normal" font-weight="400"
                                    stroke="none" textLength="5.54688" x="-2.76563"
                                    xml:space="preserve" y="3.5">1</text>
                            </g>
                        </g>
                        <g data-tags="blk frame">
                            <g clip-path="none" fill="none" opacity="1" stroke="#0a0a0a"
                                stroke-linecap="butt" stroke-linejoin="miter" stroke-miterlimit="2"
                                stroke-opacity="1" stroke-width="1"
                                transform="matrix(1,0,0,1,110,103)">
                                <path
                                    d="M7,0 L23,0 C26.866,0 30,3.13401 30,7 C30,10.866 26.866,14 23,14 L7,14 C3.13401,14 0,10.866 0,7 C0,3.13401 3.13401,0 7,0 z"
                                    fill-rule="nonzero" vector-effect="none" />
                            </g>
                        </g>
                        <g data-tags="portannotationpanel PortDataTypeString">
                            <defs>
                                <clipPath id="clip5">
                                    <path d="M-34,-8 L253,-8 L253,53 L-34,53 L-34,-8 z" />
                                </clipPath>
                            </defs>
                            <g clip-path="url(#clip5)" fill="none" opacity="1" stroke="#0a0a0a"
                                stroke-linecap="square" stroke-linejoin="bevel" stroke-opacity="1"
                                stroke-width="1" transform="matrix(1,0,0,1,142,95)">
                                <text fill="#0a0a0a" fill-opacity="1" font-family="monospace"
                                    font-size="9" font-style="normal" font-weight="400"
                                    stroke="none" textLength="26.9844" x="1" xml:space="preserve"
                                    y="10">double</text>
                            </g>
                        </g>
                    </g>
                </g>
                <g data-tags="blk">
                    <g id="TestMdl:11">
                        <g clip-path="none" fill="none" opacity="0.65098" stroke="#0a0a0a"
                            stroke-linecap="square" stroke-linejoin="bevel" stroke-opacity="1"
                            stroke-width="1" transform="matrix(1,0,0,1,199,88)" />
                        <defs />
                        <g clip-path="none" fill="#f5f5f5CC" opacity="1" stroke="none"
                            stroke-opacity="0" transform="matrix(1,0,0,1,200,89)">
                            <path d="M0,0 L100,0 L100,42 L0,42 L0,0 z" fill-rule="evenodd"
                                vector-effect="none" />
                        </g>
                        <g data-tags="blk transparency">
                            <defs />
                            <g clip-path="none" fill="#f5f5f5CC" fill-opacity="1" opacity="0.75"
                                stroke="none" stroke-opacity="0"
                                transform="matrix(0.285714,0,0,0.285714,281.429,109.143)">
                                <path
                                    d="M7,0 L23,0 C26.866,0 30,3.13401 30,7 C30,10.866 26.866,14 23,14 L7,14 C3.13401,14 0,10.866 0,7 C0,3.13401 3.13401,0 7,0 z"
                                    fill-rule="nonzero" vector-effect="none" />
                            </g>
                            <g clip-path="none" fill="none" opacity="0.75" stroke="#0a0a0a"
                                stroke-linecap="butt" stroke-linejoin="miter" stroke-miterlimit="2"
                                stroke-opacity="1" stroke-width="1"
                                transform="matrix(0.285714,0,0,0.285714,281.429,109.143)">
                                <path
                                    d="M7,0 L23,0 C26.866,0 30,3.13401 30,7 C30,10.866 26.866,14 23,14 L7,14 C3.13401,14 0,10.866 0,7 C0,3.13401 3.13401,0 7,0 z"
                                    fill-rule="nonzero" vector-effect="none" />
                            </g>
                            <defs />
                            <g clip-path="none" fill="#f5f5f5CC" fill-opacity="1" opacity="0.75"
                                stroke="none" stroke-opacity="0"
                                transform="matrix(0.285714,0,0,0.285714,210,109.143)">
                                <path
                                    d="M7,0 L23,0 C26.866,0 30,3.13401 30,7 C30,10.866 26.866,14 23,14 L7,14 C3.13401,14 0,10.866 0,7 C0,3.13401 3.13401,0 7,0 z"
                                    fill-rule="nonzero" vector-effect="none" />
                            </g>
                            <g clip-path="none" fill="none" opacity="0.75" stroke="#0a0a0a"
                                stroke-linecap="butt" stroke-linejoin="miter" stroke-miterlimit="2"
                                stroke-opacity="1" stroke-width="1"
                                transform="matrix(0.285714,0,0,0.285714,210,109.143)">
                                <path
                                    d="M7,0 L23,0 C26.866,0 30,3.13401 30,7 C30,10.866 26.866,14 23,14 L7,14 C3.13401,14 0,10.866 0,7 C0,3.13401 3.13401,0 7,0 z"
                                    fill-rule="nonzero" vector-effect="none" />
                            </g>
                            <defs />
                            <g clip-path="none" fill="#0a0a0a" fill-opacity="1" opacity="0.75"
                                stroke="none" stroke-opacity="0"
                                transform="matrix(0.285714,0,0,0.285714,281.429,111.143)">
                                <path d="M0,0 L-8,-4 L-8,4 L0,0 z" fill-rule="nonzero"
                                    vector-effect="none" />
                            </g>
                            <defs />
                            <g clip-path="none" fill="none" opacity="0.75" stroke="#0a0a0a"
                                stroke-linecap="butt" stroke-linejoin="miter" stroke-miterlimit="2"
                                stroke-opacity="1" stroke-width="1"
                                transform="matrix(0.285714,0,0,0.285714,178.571,79.7143)">
                                <path d="M140,110 L352,110" fill-rule="evenodd" vector-effect="none" />
                            </g>
                        </g>
                        <g data-tags="blk">
                            <defs>
                                <clipPath id="clip7">
                                    <path d="M-5,-23 L99,-23 L99,23 L-5,23 L-5,-23 z" />
                                </clipPath>
                            </defs>
                            <g clip-path="url(#clip7)" fill="none" opacity="1" stroke="#0a0a0a"
                                stroke-linecap="butt" stroke-linejoin="miter" stroke-miterlimit="2"
                                stroke-opacity="1" stroke-width="1"
                                transform="matrix(1,0,0,1,203,110)">
                                <text fill="#0a0a0a" fill-opacity="1" font-family="monospace"
                                    font-size="9" font-style="normal" font-weight="400"
                                    stroke="none" textLength="5" x="0" xml:space="preserve" y="3.5">1</text>
                            </g>
                            <defs>
                                <clipPath id="clip8">
                                    <path d="M-99,-23 L5,-23 L5,23 L-99,23 L-99,-23 z" />
                                </clipPath>
                            </defs>
                            <g clip-path="url(#clip8)" fill="none" opacity="1" stroke="#0a0a0a"
                                stroke-linecap="butt" stroke-linejoin="miter" stroke-miterlimit="2"
                                stroke-opacity="1" stroke-width="1"
                                transform="matrix(1,0,0,1,297,110)">
                                <text fill="#0a0a0a" fill-opacity="1" font-family="monospace"
                                    font-size="9" font-style="normal" font-weight="400"
                                    stroke="none" textLength="5" x="-5" xml:space="preserve" y="3.5">1</text>
                            </g>
                        </g>
                        <g data-tags="blk frame">
                            <defs />
                            <g clip-path="none" fill="none" opacity="1" stroke="#0a0a0a"
                                stroke-linecap="butt" stroke-linejoin="miter" stroke-miterlimit="2"
                                stroke-opacity="1" stroke-width="1"
                                transform="matrix(1,0,0,1,200,89)">
                                <path d="M0,0 L100,0 L100,42 L0,42 L0,0 z" fill-rule="evenodd"
                                    vector-effect="none" />
                            </g>
                        </g>
                        <g data-tags="blk BlockName">
                            <defs>
                                <clipPath id="clip9">
                                    <path
                                        d="M-116.305,-46 L170.695,-46 L170.695,15 L-116.305,15 L-116.305,-46 z" />
                                </clipPath>
                            </defs>
                            <g clip-path="url(#clip9)" fill="none" opacity="1" stroke="#0a0a0a"
                                stroke-linecap="square" stroke-linejoin="bevel" stroke-opacity="1"
                                stroke-width="1" transform="matrix(1,0,0,1,224.305,133)">
                                <text fill="#0a0a0a" fill-opacity="1" font-family="monospace"
                                    font-size="10" font-style="normal" font-weight="400"
                                    stroke="none" textLength="49.3906" x="1" xml:space="preserve"
                                    y="11">Subsystem</text>
                            </g>
                        </g>
                        <g data-tags="portannotationpanel PortDataTypeString">
                            <defs>
                                <clipPath id="clip10">
                                    <path d="M-194,-8 L93,-8 L93,53 L-194,53 L-194,-8 z" />
                                </clipPath>
                            </defs>
                            <g clip-path="url(#clip10)" fill="none" opacity="1" stroke="#0a0a0a"
                                stroke-linecap="square" stroke-linejoin="bevel" stroke-opacity="1"
                                stroke-width="1" transform="matrix(1,0,0,1,302,95)">
                                <text fill="#0a0a0a" fill-opacity="1" font-family="monospace"
                                    font-size="9" font-style="normal" font-weight="400"
                                    stroke="none" textLength="26.9844" x="1" xml:space="preserve"
                                    y="10">double</text>
                            </g>
                        </g>
                    </g>
                </g>
                <g id="TestMdl:8#out:1;line">
                    <g data-tags="PathIntersectionsEnabledTag">
                        <g id="TestMdl:7#seg:145-110-185-110">
                            <defs />
                            <g clip-path="none" fill="#0a0a0a" fill-opacity="1" opacity="1"
                                stroke="none" stroke-opacity="0" transform="matrix(1,0,0,1,200,110)">
                                <path d="M0,0 L-8,-4 L-8,4 L0,0 z" fill-rule="nonzero"
                                    vector-effect="none" />
                            </g>
                            <g clip-path="none" fill="none" opacity="1" stroke="#0a0a0a"
                                stroke-linecap="butt" stroke-linejoin="miter" stroke-miterlimit="2"
                                stroke-opacity="1" stroke-width="1" transform="matrix(1,0,0,1,0,0)">
                                <path d="M140,110 L192,110" fill-rule="evenodd" vector-effect="none"
                                    class="animated-dash" stroke-dasharray="4,4" />
                            </g>
                        </g>
                    </g>
                </g>
                <g id="TestMdl:11#out:1;line">
                    <g data-tags="PathIntersectionsEnabledTag">
                        <g id="TestMdl:7#seg:305-110-345-110">
                            <g clip-path="none" fill="#0a0a0a" fill-opacity="1" opacity="1"
                                stroke="none" stroke-opacity="0" transform="matrix(1,0,0,1,360,110)">
                                <path d="M0,0 L-8,-4 L-8,4 L0,0 z" fill-rule="nonzero"
                                    vector-effect="none" />
                            </g>
                            <g clip-path="none" fill="none" opacity="1" stroke="#0a0a0a"
                                stroke-linecap="butt" stroke-linejoin="miter" stroke-miterlimit="2"
                                stroke-opacity="1" stroke-width="1" transform="matrix(1,0,0,1,0,0)">
                                <path d="M300,110 L352,110" fill-rule="evenodd" vector-effect="none"
                                    class="animated-dash" stroke-dasharray="4,4" />
                            </g>
                        </g>
                    </g>
                </g>
            </g>
        </g>
    </g>
    <style>
        @keyframes dash {
        to {
        stroke-dashoffset: -16;
        }
        }
        .animated-dash {
        animation: dash 1s linear infinite;
        }
    </style>
</svg>