<?xml version='1.0' encoding='utf-8'?>
<svg xmlns="http://www.w3.org/2000/svg" display="inline" height="24.000000px" preserveAspectRatio="xMinYMin meet" viewBox="109.00 94.00 282.00 24.00" width="282.000000px" x="0" y="0" zoomAndPan="disable"><g fill="none" stroke="black" stroke-width="1" fill-rule="evenodd" stroke-linecap="square" stroke-linejoin="bevel"><g data-tags="diagram"><g id="TestMdl:3"><g data-tags="blk"><g id="TestMdl:5"><g clip-path="none" fill="none" opacity="0.65098" stroke="#0a0a0a" stroke-linecap="square" stroke-linejoin="bevel" stroke-opacity="1" stroke-width="1" transform="matrix(1,0,0,1,359,102)" /><g clip-path="none" fill="#f5f5f5CC" fill-opacity="1" opacity="1" stroke="none" stroke-opacity="0" transform="matrix(1,0,0,1,360,103)"><path d="M7,0 L23,0 C26.866,0 30,3.13401 30,7 C30,10.866 26.866,14 23,14 L7,14 C3.13401,14 0,10.866 0,7 C0,3.13401 3.13401,0 7,0 z" fill-rule="nonzero" vector-effect="none" /></g><g data-tags="blk"><defs><clipPath id="clip2"><path d="M-17,-9 L17,-9 L17,9 L-17,9 L-17,-9 z" /></clipPath></defs><g clip-path="url(#clip2)" fill="none" opacity="1" stroke="#0a0a0a" stroke-linecap="butt" stroke-linejoin="miter" stroke-miterlimit="2" stroke-opacity="1" stroke-width="1" transform="matrix(1,0,0,1,375,110)"><text fill="#0a0a0a" fill-opacity="1" font-family="JetBrains Mono" font-size="10" font-style="normal" font-weight="400" stroke="none" textLength="5.54688" x="-2.76563" xml:space="preserve" y="3.5">1</text></g></g><g data-tags="blk frame"><g clip-path="none" fill="none" opacity="1" stroke="#0a0a0a" stroke-linecap="butt" stroke-linejoin="miter" stroke-miterlimit="2" stroke-opacity="1" stroke-width="1" transform="matrix(1,0,0,1,360,103)"><path d="M7,0 L23,0 C26.866,0 30,3.13401 30,7 C30,10.866 26.866,14 23,14 L7,14 C3.13401,14 0,10.866 0,7 C0,3.13401 3.13401,0 7,0 z" fill-rule="nonzero" vector-effect="none" /></g></g></g></g><g data-tags="blk"><g id="TestMdl:4"><g clip-path="none" fill="none" opacity="0.65098" stroke="#0a0a0a" stroke-linecap="square" stroke-linejoin="bevel" stroke-opacity="1" stroke-width="1" transform="matrix(1,0,0,1,109,102)" /><g clip-path="none" fill="#f5f5f5CC" fill-opacity="1" opacity="1" stroke="none" stroke-opacity="0" transform="matrix(1,0,0,1,110,103)"><path d="M7,0 L23,0 C26.866,0 30,3.13401 30,7 C30,10.866 26.866,14 23,14 L7,14 C3.13401,14 0,10.866 0,7 C0,3.13401 3.13401,0 7,0 z" fill-rule="nonzero" vector-effect="none" /></g><g data-tags="blk"><defs><clipPath id="clip4"><path d="M-17,-9 L17,-9 L17,9 L-17,9 L-17,-9 z" /></clipPath></defs><g clip-path="url(#clip4)" fill="none" opacity="1" stroke="#0a0a0a" stroke-linecap="butt" stroke-linejoin="miter" stroke-miterlimit="2" stroke-opacity="1" stroke-width="1" transform="matrix(1,0,0,1,125,110)"><text fill="#0a0a0a" fill-opacity="1" font-family="JetBrains Mono" font-size="10" font-style="normal" font-weight="400" stroke="none" textLength="5.54688" x="-2.76563" xml:space="preserve" y="3.5">1</text></g></g><g data-tags="blk frame"><g clip-path="none" fill="none" opacity="1" stroke="#0a0a0a" stroke-linecap="butt" stroke-linejoin="miter" stroke-miterlimit="2" stroke-opacity="1" stroke-width="1" transform="matrix(1,0,0,1,110,103)"><path d="M7,0 L23,0 C26.866,0 30,3.13401 30,7 C30,10.866 26.866,14 23,14 L7,14 C3.13401,14 0,10.866 0,7 C0,3.13401 3.13401,0 7,0 z" fill-rule="nonzero" vector-effect="none" /></g></g><g data-tags="portannotationpanel PortDataTypeString"><defs><clipPath id="clip5"><path d="M-34,0 L253,0 L253,27 L-34,27 L-34,0 z" /></clipPath></defs><g clip-path="url(#clip5)" fill="none" opacity="1" stroke="#0a0a0a" stroke-linecap="square" stroke-linejoin="bevel" stroke-opacity="1" stroke-width="1" transform="matrix(1,0,0,1,142,95)"><text fill="#0a0a0a" fill-opacity="1" font-family="JetBrains Mono" font-size="9" font-style="normal" font-weight="400" stroke="none" textLength="26.9844" x="1" xml:space="preserve" y="10">double</text></g></g></g></g><g id="TestMdl:4#out:1;line"><g data-tags="PathIntersectionsEnabledTag"><g id="TestMdl:3#seg:145-110-345-110"><g clip-path="none" fill="#0a0a0a" fill-opacity="1" opacity="1" stroke="none" stroke-opacity="0" transform="matrix(1,0,0,1,360,110)"><path d="M0,0 L-8,-4 L-8,4 L0,0 z" fill-rule="nonzero" vector-effect="none" /></g><g clip-path="none" fill="none" opacity="1" stroke="#0a0a0a" stroke-linecap="butt" stroke-linejoin="miter" stroke-miterlimit="2" stroke-opacity="1" stroke-width="1" transform="matrix(1,0,0,1,0,0)"><path d="M140,110 L352,110" fill-rule="evenodd" vector-effect="none" class="animated-dash" stroke-dasharray="4,4" /></g></g></g></g></g></g></g><style>
            @keyframes dash {
                to {
                    stroke-dashoffset: -16;
                }
            }
            .animated-dash {
                animation: dash 1s linear infinite;
            }
        </style></svg>